<svg xmlns="http://www.w3.org/2000/svg" xmlns:xlink="http://www.w3.org/1999/xlink" xmlns:lucid="lucid" width="1406.19" height="1287.14"><g transform="translate(-120 -80)" lucid:page-tab-id="0_0"><path d="M0 0h1870.87v2581.67H0z" fill="#fff"/><path d="M140 566c0-3.3 2.7-6 6-6h1108c3.3 0 6 2.7 6 6v775.14c0 3.32-2.7 6-6 6H146c-3.3 0-6-2.68-6-6z" fill-opacity="0"/><path d="M207.56 560h61.55m30.8 0h61.54m30.78 0h61.56m30.78 0h61.55m30.8 0h61.54m30.78 0h61.56m30.78 0h61.55m30.8 0h61.54m30.78 0h61.56m30.78 0h61.55m30.8 0h61.54m30.78 0H1254l3.03.82 2.15 2.15.82 3.03v28.7m0 28.72v57.42m0 28.7v57.42m0 28.7v57.43m0 28.7v57.42m0 28.7v57.42m0 28.7v57.43m0 28.7v57.43m0 28.7v57.42m0 28.7v28.72l-.82 3.03-2.15 2.15-3.03.82h-30.78m-30.78 0h-61.55m-30.8 0h-61.54m-30.78 0h-61.56m-30.78 0H853.9m-30.8 0h-61.54m-30.78 0h-61.56m-30.78 0H576.9m-30.8 0h-61.54m-30.78 0h-61.56m-30.78 0H299.9m-30.8 0h-61.54m-30.78 0H146l-3.03-.82-2.15-2.15-.82-3.03v-28.7m0-28.72v-57.4m0-28.72v-57.42m0-28.7v-57.43m0-28.7v-57.42m0-28.7V881.8m0-28.7v-57.43m0-28.7v-57.43m0-28.7v-57.42m0-28.7V566l.82-3.03 2.15-2.15L146 560h30.78" stroke="#044a70" stroke-width="3" fill="none"/><path d="M531.1 127c0-14.9 12.1-27 27-27h283.7c14.9 0 27 12.1 27 27v199.26c0 14.9-12.1 27-27 27H558.1c-14.9 0-27-12.1-27-27z" stroke="#000" stroke-opacity="0" stroke-width="3" fill="#044a70"/><use xlink:href="#a" transform="matrix(1,0,0,1,536.1111111111111,105) translate(31.481481481481524 63.01388888888888)"/><use xlink:href="#b" transform="matrix(1,0,0,1,536.1111111111111,105) translate(137.92592592592592 63.01388888888888)"/><use xlink:href="#c" transform="matrix(1,0,0,1,536.1111111111111,105) translate(177.77777777777777 63.01388888888888)"/><use xlink:href="#d" transform="matrix(1,0,0,1,536.1111111111111,105) translate(126.22222222222226 91.4583333333333)"/><use xlink:href="#e" transform="matrix(1,0,0,1,536.1111111111111,105) translate(151.33703703703702 115.45833333333327)"/><use xlink:href="#f" transform="matrix(1,0,0,1,536.1111111111111,105) translate(42.015432098765544 143.0138888888888)"/><use xlink:href="#g" transform="matrix(1,0,0,1,536.1111111111111,105) translate(86.69444444444451 143.0138888888888)"/><use xlink:href="#h" transform="matrix(1,0,0,1,536.1111111111111,105) translate(173.47222222222223 143.0138888888888)"/><use xlink:href="#i" transform="matrix(1,0,0,1,536.1111111111111,105) translate(258.82407407407396 143.0138888888888)"/><use xlink:href="#j" transform="matrix(1,0,0,1,536.1111111111111,105) translate(0.527777777777942 172.34722222222211)"/><use xlink:href="#k" transform="matrix(1,0,0,1,536.1111111111111,105) translate(126.62037037037041 172.34722222222211)"/><use xlink:href="#l" transform="matrix(1,0,0,1,536.1111111111111,105) translate(179.51543209876542 172.34722222222211)"/><use xlink:href="#m" transform="matrix(1,0,0,1,536.1111111111111,105) translate(233.76851851851845 172.34722222222211)"/><use xlink:href="#n" transform="matrix(1,0,0,1,536.1111111111111,105) translate(300.3117283950616 172.34722222222211)"/><use xlink:href="#o" transform="matrix(1,0,0,1,536.1111111111111,105) translate(118.57407407407412 201.68055555555543)"/><path d="M260 598h271.1v207.33H260z" stroke="#000" stroke-opacity="0" stroke-width="3" fill="#0c7cba"/><use xlink:href="#p" transform="matrix(1,0,0,1,265,603.0000000000001) translate(36.629629629629676 24.88888888888888)"/><use xlink:href="#q" transform="matrix(1,0,0,1,265,603.0000000000001) translate(169.74074074074073 24.88888888888888)"/><use xlink:href="#r" transform="matrix(1,0,0,1,265,603.0000000000001) translate(30.583333333333428 53.3333333333333)"/><use xlink:href="#s" transform="matrix(1,0,0,1,265,603.0000000000001) translate(133.74999999999997 53.3333333333333)"/><use xlink:href="#t" transform="matrix(1,0,0,1,265,603.0000000000001) translate(220.30555555555546 53.3333333333333)"/><use xlink:href="#u" transform="matrix(1,0,0,1,265,603.0000000000001) translate(100.83333333333336 77.33333333333329)"/><use xlink:href="#v" transform="matrix(1,0,0,1,265,603.0000000000001) translate(118.33703703703704 101.33333333333326)"/><use xlink:href="#w" transform="matrix(1,0,0,1,265,603.0000000000001) translate(20.388888888888985 128.8888888888888)"/><use xlink:href="#x" transform="matrix(1,0,0,1,265,603.0000000000001) translate(80.0061728395062 128.8888888888888)"/><use xlink:href="#y" transform="matrix(1,0,0,1,265,603.0000000000001) translate(100.37654320987657 128.8888888888888)"/><use xlink:href="#z" transform="matrix(1,0,0,1,265,603.0000000000001) translate(207.66049382716045 128.8888888888888)"/><use xlink:href="#A" transform="matrix(1,0,0,1,265,603.0000000000001) translate(228.03086419753078 128.8888888888888)"/><use xlink:href="#B" transform="matrix(1,0,0,1,265,603.0000000000001) translate(5.4845679012346835 158.22222222222211)"/><use xlink:href="#C" transform="matrix(1,0,0,1,265,603.0000000000001) translate(85.54012345679016 158.22222222222211)"/><use xlink:href="#D" transform="matrix(1,0,0,1,265,603.0000000000001) translate(119.49074074074075 158.22222222222211)"/><use xlink:href="#E" transform="matrix(1,0,0,1,265,603.0000000000001) translate(229.35493827160485 158.22222222222211)"/><use xlink:href="#F" transform="matrix(1,0,0,1,265,603.0000000000001) translate(76.3055555555556 187.55555555555543)"/><a xlink:href="http://Adonis.js" target="_blank" transform="matrix(1,0,0,1,265,603.0000000000001)"><path class="lucid-link lucid-hotspot lucid-overlay-hotspot" fill-opacity="0" d="M133.75 37.33h81v24h-81z"/></a><path d="M900 582.67h271.1v242H900z" stroke="#000" stroke-opacity="0" stroke-width="3" fill="#0c7cba"/><use xlink:href="#G" transform="matrix(1,0,0,1,905.0000000000001,587.6666666666669) translate(9.629629629629676 24.88888888888888)"/><use xlink:href="#H" transform="matrix(1,0,0,1,905.0000000000001,587.6666666666669) translate(99.92592592592594 24.88888888888888)"/><use xlink:href="#I" transform="matrix(1,0,0,1,905.0000000000001,587.6666666666669) translate(136.96296296296296 24.88888888888888)"/><use xlink:href="#J" transform="matrix(1,0,0,1,905.0000000000001,587.6666666666669) translate(30.027777777777885 53.3333333333333)"/><use xlink:href="#K" transform="matrix(1,0,0,1,905.0000000000001,587.6666666666669) translate(133.19444444444443 53.3333333333333)"/><use xlink:href="#e" transform="matrix(1,0,0,1,905.0000000000001,587.6666666666669) translate(118.33703703703704 77.33333333333329)"/><use xlink:href="#L" transform="matrix(1,0,0,1,905.0000000000001,587.6666666666669) translate(39.40123456790131 104.88888888888881)"/><use xlink:href="#M" transform="matrix(1,0,0,1,905.0000000000001,587.6666666666669) translate(130.25308641975306 104.88888888888881)"/><use xlink:href="#N" transform="matrix(1,0,0,1,905.0000000000001,587.6666666666669) translate(196.79629629629625 104.88888888888881)"/><use xlink:href="#O" transform="matrix(1,0,0,1,905.0000000000001,587.6666666666669) translate(29.2500000000001 134.22222222222211)"/><use xlink:href="#E" transform="matrix(1,0,0,1,905.0000000000001,587.6666666666669) translate(205.58950617283944 134.22222222222211)"/><use xlink:href="#P" transform="matrix(1,0,0,1,905.0000000000001,587.6666666666669) translate(41.70987654320996 163.55555555555543)"/><use xlink:href="#Q" transform="matrix(1,0,0,1,905.0000000000001,587.6666666666669) translate(151.09876543209876 163.55555555555543)"/><use xlink:href="#R" transform="matrix(1,0,0,1,905.0000000000001,587.6666666666669) translate(206.70987654320982 163.55555555555543)"/><use xlink:href="#g" transform="matrix(1,0,0,1,905.0000000000001,587.6666666666669) translate(30.60802469135811 192.88888888888874)"/><use xlink:href="#S" transform="matrix(1,0,0,1,905.0000000000001,587.6666666666669) translate(117.38580246913581 192.88888888888874)"/><use xlink:href="#E" transform="matrix(1,0,0,1,905.0000000000001,587.6666666666669) translate(204.2314814814814 192.88888888888874)"/><use xlink:href="#T" transform="matrix(1,0,0,1,905.0000000000001,587.6666666666669) translate(70.6018518518519 222.22222222222206)"/><path d="M551.52 702.67h-19.4v-2h19.4m58.23 2h-38.82v-2h38.82m48.8 2h-29.4v-2h29.4m125.9 2h-38.82v-2h38.82m58.23 2h-38.82v-2h38.82m38.82 2h-19.4v-2h19.4m-155.3 2h-25.24v-2h25.25" fill="#5e5e5e"/><path d="M532.14 702.67h-1.03v-2h1.04M896.76 701.67l-14.26 4.63v-9.27z" fill="#5e5e5e"/><path d="M900 701.67l-18.5 6v-12.02m2 9.28l10.03-3.26-10.03-3.26" fill="#5e5e5e"/><g><use xlink:href="#U" transform="matrix(1,0,0,1,658.5387837103666,690.9999999406334) translate(0 14.222222222222223)"/></g><path d="M482.56 567.74l-9.75 15.22-1.68-1.08 9.76-15.22m30.94-44.6l-19.5 30.46-1.7-1.08L510.15 521m21.9-30.5h-2.36l2.7-4.2h2.37m35.6-55.55l-19.5 30.44-1.7-1.1 19.5-30.43m30.95-44.6l-19.5 30.45-1.7-1.08L597.93 384m21.2-29.36l-9.76 15.22-1.7-1.08 9.77-15.22" fill="#5e5e5e"/><path d="M619.1 354.66l-1.7-1.08.22-.32H620M475.33 585.76l-11.6 9.52 3.8-14.52z" fill="#5e5e5e"/><path d="M477.03 585.67L461.98 598l4.92-18.82m-1.43 13.37l8.16-6.7-5.5-3.5" fill="#5e5e5e"/><g><use xlink:href="#V" transform="matrix(1,0,0,1,524.1238434120949,464.96124033333336) translate(0 14.222222222222223)"/></g><g><use xlink:href="#W" transform="matrix(1,0,0,1,489.093927995672,490.49790964343447) translate(0 14.222222222222223)"/></g><path d="M940.6 566.96l-1.63 1.15-12.52-17.78 1.64-1.15m-12.53-17.8l-1.63 1.16-20.68-29.4h2.44m-17.67-25.1l-1.64 1.14-25.04-35.58 1.64-1.16m-12.5-17.8l-1.65 1.16-25.03-35.57 1.64-1.15m-12.52-17.8l-1.63 1.16-12.5-17.8 1.63-1.14" fill="#5e5e5e"/><path d="M790.44 353.52l-1.63 1.15-1-1.4h2.46M948.57 580.02l-12-9 7.58-5.33z" fill="#5e5e5e"/><path d="M950.43 582.67L934.87 571l9.83-6.92m-6.43 6.97l8.44 6.32-3.1-10.08" fill="#5e5e5e"/><g><use xlink:href="#V" transform="matrix(1,0,0,1,870.7026702229249,481.803630245257) translate(0 14.222222222222223)"/></g><path d="M260 598h271.1v207.33H260z" stroke="#000" stroke-opacity="0" stroke-width="3" fill="#0c7cba"/><g><use xlink:href="#p" transform="matrix(1,0,0,1,265,603.0000000000001) translate(36.629629629629676 24.88888888888888)"/><use xlink:href="#q" transform="matrix(1,0,0,1,265,603.0000000000001) translate(169.74074074074073 24.88888888888888)"/><use xlink:href="#r" transform="matrix(1,0,0,1,265,603.0000000000001) translate(30.583333333333428 53.3333333333333)"/><use xlink:href="#s" transform="matrix(1,0,0,1,265,603.0000000000001) translate(133.74999999999997 53.3333333333333)"/><use xlink:href="#t" transform="matrix(1,0,0,1,265,603.0000000000001) translate(220.30555555555546 53.3333333333333)"/><use xlink:href="#u" transform="matrix(1,0,0,1,265,603.0000000000001) translate(100.83333333333336 77.33333333333329)"/><use xlink:href="#v" transform="matrix(1,0,0,1,265,603.0000000000001) translate(118.33703703703704 101.33333333333326)"/><use xlink:href="#w" transform="matrix(1,0,0,1,265,603.0000000000001) translate(20.388888888888985 128.8888888888888)"/><use xlink:href="#x" transform="matrix(1,0,0,1,265,603.0000000000001) translate(80.0061728395062 128.8888888888888)"/><use xlink:href="#y" transform="matrix(1,0,0,1,265,603.0000000000001) translate(100.37654320987657 128.8888888888888)"/><use xlink:href="#z" transform="matrix(1,0,0,1,265,603.0000000000001) translate(207.66049382716045 128.8888888888888)"/><use xlink:href="#A" transform="matrix(1,0,0,1,265,603.0000000000001) translate(228.03086419753078 128.8888888888888)"/><use xlink:href="#B" transform="matrix(1,0,0,1,265,603.0000000000001) translate(5.4845679012346835 158.22222222222211)"/><use xlink:href="#C" transform="matrix(1,0,0,1,265,603.0000000000001) translate(85.54012345679016 158.22222222222211)"/><use xlink:href="#D" transform="matrix(1,0,0,1,265,603.0000000000001) translate(119.49074074074075 158.22222222222211)"/><use xlink:href="#E" transform="matrix(1,0,0,1,265,603.0000000000001) translate(229.35493827160485 158.22222222222211)"/><use xlink:href="#F" transform="matrix(1,0,0,1,265,603.0000000000001) translate(76.3055555555556 187.55555555555543)"/></g><g transform="matrix(1,0,0,1,265,603.0000000000001)"><a xlink:href="http://Adonis.js" target="_blank"><path class="lucid-link lucid-hotspot lucid-overlay-hotspot" fill-opacity="0" d="M133.75 37.33h81v24h-81z"/></a></g><path d="M900 1002.67h271.1v236.66H900z" stroke="#000" stroke-opacity="0" stroke-width="3" fill="#0c7cba"/><g><use xlink:href="#X" transform="matrix(1,0,0,1,905.0000000000001,1007.6666666666667) translate(108.81481481481482 24.88888888888888)"/><use xlink:href="#r" transform="matrix(1,0,0,1,905.0000000000001,1007.6666666666667) translate(30.583333333333428 53.3333333333333)"/><use xlink:href="#s" transform="matrix(1,0,0,1,905.0000000000001,1007.6666666666667) translate(133.74999999999997 53.3333333333333)"/><use xlink:href="#t" transform="matrix(1,0,0,1,905.0000000000001,1007.6666666666667) translate(220.30555555555546 53.3333333333333)"/><use xlink:href="#u" transform="matrix(1,0,0,1,905.0000000000001,1007.6666666666667) translate(100.83333333333336 77.33333333333329)"/><use xlink:href="#v" transform="matrix(1,0,0,1,905.0000000000001,1007.6666666666667) translate(118.33703703703704 101.33333333333326)"/><use xlink:href="#L" transform="matrix(1,0,0,1,905.0000000000001,1007.6666666666667) translate(39.40123456790131 128.8888888888888)"/><use xlink:href="#M" transform="matrix(1,0,0,1,905.0000000000001,1007.6666666666667) translate(130.25308641975306 128.8888888888888)"/><use xlink:href="#N" transform="matrix(1,0,0,1,905.0000000000001,1007.6666666666667) translate(196.79629629629625 128.8888888888888)"/><use xlink:href="#O" transform="matrix(1,0,0,1,905.0000000000001,1007.6666666666667) translate(29.2500000000001 158.22222222222211)"/><use xlink:href="#E" transform="matrix(1,0,0,1,905.0000000000001,1007.6666666666667) translate(205.58950617283944 158.22222222222211)"/><use xlink:href="#P" transform="matrix(1,0,0,1,905.0000000000001,1007.6666666666667) translate(19.302469135802554 187.55555555555543)"/><use xlink:href="#S" transform="matrix(1,0,0,1,905.0000000000001,1007.6666666666667) translate(128.69135802469134 187.55555555555543)"/><use xlink:href="#Y" transform="matrix(1,0,0,1,905.0000000000001,1007.6666666666667) translate(215.53703703703695 187.55555555555543)"/><use xlink:href="#Z" transform="matrix(1,0,0,1,905.0000000000001,1007.6666666666667) translate(35.3611111111112 216.88888888888874)"/><use xlink:href="#aa" transform="matrix(1,0,0,1,905.0000000000001,1007.6666666666667) translate(180.466049382716 216.88888888888874)"/></g><g transform="matrix(1,0,0,1,905.0000000000001,1007.6666666666667)"><a xlink:href="http://Adonis.js" target="_blank"><path class="lucid-link lucid-hotspot lucid-overlay-hotspot" fill-opacity="0" d="M133.75 37.33h81v24h-81z"/></a></g><path d="M1036.56 984.16h-2v-17.6h2m0-17.62h-2v-12.5h2m0-21.33h-2v-1.38h2m0-28.74h-2v-24.1h2m0-17.6h-2v-17.6h2" fill="#5e5e5e"/><path d="M1036.56 825.7h-2v-1.03h2M1035.56 999.43l-4.64-14.27h9.27z" fill="#5e5e5e"/><path d="M1035.56 1002.67l-6.02-18.5h12.03m-9.27 2l3.26 10.02 3.25-10.04" fill="#5e5e5e"/><g><use xlink:href="#V" transform="matrix(1,0,0,1,1019.2839506172841,884.9753373354735) translate(0 14.222222222222223)"/></g><g><use xlink:href="#ab" transform="matrix(1,0,0,1,977.4567901234569,915.1112723432424) translate(0 14.222222222222223)"/></g><path d="M645.37 1195.33c0 10.63-95.22 19.25-212.68 19.25-117.48 0-212.7-8.62-212.7-19.25v-154c0-10.63 95.22-19.25 212.7-19.25 117.45 0 212.67 8.62 212.67 19.25z" stroke="#044a70" stroke-width="3" fill="#0c7cba"/><path d="M645.37 1041.33c0 10.63-95.22 19.25-212.68 19.25-117.48 0-212.7-8.62-212.7-19.25" stroke="#044a70" stroke-width="3" fill="none"/><g><use xlink:href="#ac" transform="matrix(1,0,0,1,225.00000000000003,1065.5833333333333) translate(105.29629629629633 24.88888888888888)"/><use xlink:href="#ad" transform="matrix(1,0,0,1,225.00000000000003,1065.5833333333333) translate(193.96296296296296 24.88888888888888)"/><use xlink:href="#ae" transform="matrix(1,0,0,1,225.00000000000003,1065.5833333333333) translate(232.4074074074074 24.88888888888888)"/><use xlink:href="#J" transform="matrix(1,0,0,1,225.00000000000003,1065.5833333333333) translate(35.9722222222224 53.3333333333333)"/><use xlink:href="#af" transform="matrix(1,0,0,1,225.00000000000003,1065.5833333333333) translate(139.13888888888894 53.3333333333333)"/><use xlink:href="#ag" transform="matrix(1,0,0,1,225.00000000000003,1065.5833333333333) translate(201.36111111111111 53.3333333333333)"/><use xlink:href="#ah" transform="matrix(1,0,0,1,225.00000000000003,1065.5833333333333) translate(229.13888888888886 53.3333333333333)"/><use xlink:href="#ai" transform="matrix(1,0,0,1,225.00000000000003,1065.5833333333333) translate(289.1388888888888 53.3333333333333)"/><use xlink:href="#aj" transform="matrix(1,0,0,1,225.00000000000003,1065.5833333333333) translate(195.33703703703702 77.33333333333329)"/><use xlink:href="#ak" transform="matrix(1,0,0,1,225.00000000000003,1065.5833333333333) translate(29.555555555555713 104.88888888888881)"/><use xlink:href="#M" transform="matrix(1,0,0,1,225.00000000000003,1065.5833333333333) translate(117.75925925925934 104.88888888888881)"/><use xlink:href="#al" transform="matrix(1,0,0,1,225.00000000000003,1065.5833333333333) translate(184.30246913580248 104.88888888888881)"/><use xlink:href="#am" transform="matrix(1,0,0,1,225.00000000000003,1065.5833333333333) translate(216.89506172839504 104.88888888888881)"/><use xlink:href="#an" transform="matrix(1,0,0,1,225.00000000000003,1065.5833333333333) translate(347.0617283950616 104.88888888888881)"/><use xlink:href="#ao" transform="matrix(1,0,0,1,225.00000000000003,1065.5833333333333) translate(158.50500000000005 134.22222222222211)"/></g><path d="M899 1122h-19.47v-2H899m-178.87 2H704.3v-2h15.83m-35.3 2h-19.46v-2h19.47m175.22 2h-33.32v-2h33.32" fill="#5e5e5e"/><path d="M900 1122h-1.03v-2H900M664.37 1125.64L650.1 1121l14.27-4.64z" fill="#5e5e5e"/><path d="M665.37 1127l-18.5-6 18.5-6m-12.03 6l10.03 3.26v-6.52" fill="#5e5e5e"/><g><use xlink:href="#ap" transform="matrix(1,0,0,1,720.1270336828164,1110.3333333927) translate(0 14.222222222222223)"/><use xlink:href="#aq" transform="matrix(1,0,0,1,720.1270336828164,1110.3333333927) translate(25.629629629629633 14.222222222222223)"/><use xlink:href="#ar" transform="matrix(1,0,0,1,720.1270336828164,1110.3333333927) translate(40.44444444444445 14.222222222222223)"/></g><defs><path fill="#fff" d="M238-95c0 69-44 99-111 99C63 4 22-25 22-93v-155h51v151c-1 38 19 59 55 60 90 1 49-130 58-211h52v153" id="as"/><path fill="#fff" d="M137-138c1-29-70-34-71-4 15 46 118 7 119 86 1 83-164 76-172 9l43-7c4 19 20 25 44 25 33 8 57-30 24-41C81-84 22-81 20-136c-2-80 154-74 161-7" id="at"/><path fill="#fff" d="M85 4C-2 5 27-109 22-190h50c7 57-23 150 33 157 60-5 35-97 40-157h50l1 190h-47c-2-12 1-28-3-38-12 25-28 42-61 42" id="au"/><path fill="#fff" d="M133-34C117-15 103 5 69 4 32 3 11-16 11-54c-1-60 55-63 116-61 1-26-3-47-28-47-18 1-26 9-28 27l-52-2c7-38 36-58 82-57s74 22 75 68l1 82c-1 14 12 18 25 15v27c-30 8-71 5-69-32zm-48 3c29 0 43-24 42-57-32 0-66-3-65 30 0 17 8 27 23 27" id="av"/><path fill="#fff" d="M135-150c-39-12-60 13-60 57V0H25l-1-190h47c2 13-1 29 3 40 6-28 27-53 61-41v41" id="aw"/><path fill="#fff" d="M25-224v-37h50v37H25zM25 0v-190h50V0H25" id="ax"/><path fill="#fff" d="M110-194c64 0 96 36 96 99 0 64-35 99-97 99-61 0-95-36-95-99 0-62 34-99 96-99zm-1 164c35 0 45-28 45-65 0-40-10-65-43-65-34 0-45 26-45 65 0 36 10 65 43 65" id="ay"/><g id="a"><use transform="matrix(0.07407407407407404,0,0,0.07407407407407404,0,0)" xlink:href="#as"/><use transform="matrix(0.07407407407407404,0,0,0.07407407407407404,19.185185185185176,0)" xlink:href="#at"/><use transform="matrix(0.07407407407407404,0,0,0.07407407407407404,33.999999999999986,0)" xlink:href="#au"/><use transform="matrix(0.07407407407407404,0,0,0.07407407407407404,50.2222222222222,0)" xlink:href="#av"/><use transform="matrix(0.07407407407407404,0,0,0.07407407407407404,65.03703703703701,0)" xlink:href="#aw"/><use transform="matrix(0.07407407407407404,0,0,0.07407407407407404,75.40740740740738,0)" xlink:href="#ax"/><use transform="matrix(0.07407407407407404,0,0,0.07407407407407404,82.81481481481478,0)" xlink:href="#ay"/></g><path fill="#fff" d="M88-194c31-1 46 15 58 34l-1-101h50l1 261h-48c-2-10 0-23-3-31C134-8 116 4 84 4 32 4 16-41 15-95c0-56 19-97 73-99zm17 164c33 0 40-30 41-66 1-37-9-64-41-64s-38 30-39 65c0 43 13 65 39 65" id="az"/><g id="b"><use transform="matrix(0.07407407407407404,0,0,0.07407407407407404,0,0)" xlink:href="#az"/><use transform="matrix(0.07407407407407404,0,0,0.07407407407407404,16.222222222222214,0)" xlink:href="#ay"/></g><path fill="#fff" d="M199 0l-22-63H83L61 0H9l90-248h61L250 0h-51zm-33-102l-36-108c-10 38-24 72-36 108h72" id="aA"/><path fill="#fff" d="M128 0H69L1-190h53L99-40l48-150h52" id="aB"/><path fill="#fff" d="M25 0v-261h50V0H25" id="aC"/><path fill="#fff" d="M115-3C79 11 28 4 28-45v-112H4v-33h27l15-45h31v45h36v33H77v99c-1 23 16 31 38 25v30" id="aD"/><g id="c"><use transform="matrix(0.07407407407407404,0,0,0.07407407407407404,0,0)" xlink:href="#aA"/><use transform="matrix(0.07407407407407404,0,0,0.07407407407407404,18.222222222222214,0)" xlink:href="#aB"/><use transform="matrix(0.07407407407407404,0,0,0.07407407407407404,33.037037037037024,0)" xlink:href="#av"/><use transform="matrix(0.07407407407407404,0,0,0.07407407407407404,47.85185185185183,0)" xlink:href="#aC"/><use transform="matrix(0.07407407407407404,0,0,0.07407407407407404,55.25925925925924,0)" xlink:href="#ax"/><use transform="matrix(0.07407407407407404,0,0,0.07407407407407404,62.66666666666664,0)" xlink:href="#av"/><use transform="matrix(0.07407407407407404,0,0,0.07407407407407404,77.48148148148145,0)" xlink:href="#au"/><use transform="matrix(0.07407407407407404,0,0,0.07407407407407404,93.70370370370367,0)" xlink:href="#aD"/><use transform="matrix(0.07407407407407404,0,0,0.07407407407407404,102.51851851851848,0)" xlink:href="#ay"/></g><path fill="#fff" d="M26 75v-336h71v23H56V52h41v23H26" id="aE"/><path fill="#fff" d="M115-194c55 1 70 41 70 98S169 2 115 4C84 4 66-9 55-30l1 105H24l-1-265h31l2 30c10-21 28-34 59-34zm-8 174c40 0 45-34 45-75s-6-73-45-74c-42 0-51 32-51 76 0 43 10 73 51 73" id="aF"/><path fill="#fff" d="M100-194c63 0 86 42 84 106H49c0 40 14 67 53 68 26 1 43-12 49-29l28 8c-11 28-37 45-77 45C44 4 14-33 15-96c1-61 26-98 85-98zm52 81c6-60-76-77-97-28-3 7-6 17-6 28h103" id="aG"/><path fill="#fff" d="M135-143c-3-34-86-38-87 0 15 53 115 12 119 90S17 21 10-45l28-5c4 36 97 45 98 0-10-56-113-15-118-90-4-57 82-63 122-42 12 7 21 19 24 35" id="aH"/><path fill="#fff" d="M100-194c62-1 85 37 85 99 1 63-27 99-86 99S16-35 15-95c0-66 28-99 85-99zM99-20c44 1 53-31 53-75 0-43-8-75-51-75s-53 32-53 75 10 74 51 75" id="aI"/><path fill="#fff" d="M141-36C126-15 110 5 73 4 37 3 15-17 15-53c-1-64 63-63 125-63 3-35-9-54-41-54-24 1-41 7-42 31l-33-3c5-37 33-52 76-52 45 0 72 20 72 64v82c-1 20 7 32 28 27v20c-31 9-61-2-59-35zM48-53c0 20 12 33 32 33 41-3 63-29 60-74-43 2-92-5-92 41" id="aJ"/><path fill="#fff" d="M3 75V52h41v-290H3v-23h71V75H3" id="aK"/><g id="d"><use transform="matrix(0.055555555555555504,0,0,0.055555555555555504,0,0)" xlink:href="#aE"/><use transform="matrix(0.055555555555555504,0,0,0.055555555555555504,5.55555555555555,0)" xlink:href="#aF"/><use transform="matrix(0.055555555555555504,0,0,0.055555555555555504,16.66666666666665,0)" xlink:href="#aG"/><use transform="matrix(0.055555555555555504,0,0,0.055555555555555504,27.77777777777775,0)" xlink:href="#aH"/><use transform="matrix(0.055555555555555504,0,0,0.055555555555555504,37.77777777777774,0)" xlink:href="#aH"/><use transform="matrix(0.055555555555555504,0,0,0.055555555555555504,47.777777777777736,0)" xlink:href="#aI"/><use transform="matrix(0.055555555555555504,0,0,0.055555555555555504,58.888888888888836,0)" xlink:href="#aJ"/><use transform="matrix(0.055555555555555504,0,0,0.055555555555555504,69.99999999999994,0)" xlink:href="#aK"/></g><path fill="#fff" d="M232-93c-1 65-40 97-104 97C67 4 28-28 28-90v-158h33c8 89-33 224 67 224 102 0 64-133 71-224h33v155" id="aL"/><path fill="#fff" d="M210-169c-67 3-38 105-44 169h-31v-121c0-29-5-50-35-48C34-165 62-65 56 0H25l-1-190h30c1 10-1 24 2 32 10-44 99-50 107 0 11-21 27-35 58-36 85-2 47 119 55 194h-31v-121c0-29-5-49-35-48" id="aM"/><g id="f"><use transform="matrix(0.06790123456790118,0,0,0.06790123456790118,0,0)" xlink:href="#aL"/><use transform="matrix(0.06790123456790118,0,0,0.06790123456790118,17.586419753086403,0)" xlink:href="#aM"/></g><path fill="#fff" d="M84 4C-5 8 30-112 23-190h32v120c0 31 7 50 39 49 72-2 45-101 50-169h31l1 190h-30c-1-10 1-25-2-33-11 22-28 36-60 37" id="aN"/><path fill="#fff" d="M114-163C36-179 61-72 57 0H25l-1-190h30c1 12-1 29 2 39 6-27 23-49 58-41v29" id="aO"/><path fill="#fff" d="M24-231v-30h32v30H24zM24 0v-190h32V0H24" id="aP"/><g id="g"><use transform="matrix(0.06790123456790118,0,0,0.06790123456790118,0,0)" xlink:href="#aN"/><use transform="matrix(0.06790123456790118,0,0,0.06790123456790118,13.580246913580234,0)" xlink:href="#aH"/><use transform="matrix(0.06790123456790118,0,0,0.06790123456790118,25.802469135802447,0)" xlink:href="#aN"/><use transform="matrix(0.06790123456790118,0,0,0.06790123456790118,39.38271604938268,0)" xlink:href="#aJ"/><use transform="matrix(0.06790123456790118,0,0,0.06790123456790118,52.96296296296291,0)" xlink:href="#aO"/><use transform="matrix(0.06790123456790118,0,0,0.06790123456790118,61.04320987654315,0)" xlink:href="#aP"/><use transform="matrix(0.06790123456790118,0,0,0.06790123456790118,66.40740740740735,0)" xlink:href="#aI"/></g><path fill="#fff" d="M87 75C49 33 22-17 22-94c0-76 28-126 65-167h31c-38 41-64 92-64 168S80 34 118 75H87" id="aQ"/><path fill="#fff" d="M96-169c-40 0-48 33-48 73s9 75 48 75c24 0 41-14 43-38l32 2c-6 37-31 61-74 61-59 0-76-41-82-99-10-93 101-131 147-64 4 7 5 14 7 22l-32 3c-4-21-16-35-41-35" id="aR"/><path fill="#fff" d="M24 0v-261h32V0H24" id="aS"/><path fill="#fff" d="M117-194c89-4 53 116 60 194h-32v-121c0-31-8-49-39-48C34-167 62-67 57 0H25l-1-190h30c1 10-1 24 2 32 11-22 29-35 61-36" id="aT"/><path fill="#fff" d="M59-47c-2 24 18 29 38 22v24C64 9 27 4 27-40v-127H5v-23h24l9-43h21v43h35v23H59v120" id="aU"/><g id="h"><use transform="matrix(0.06790123456790118,0,0,0.06790123456790118,0,0)" xlink:href="#aQ"/><use transform="matrix(0.06790123456790118,0,0,0.06790123456790118,8.08024691358024,0)" xlink:href="#aR"/><use transform="matrix(0.06790123456790118,0,0,0.06790123456790118,20.30246913580245,0)" xlink:href="#aS"/><use transform="matrix(0.06790123456790118,0,0,0.06790123456790118,25.666666666666643,0)" xlink:href="#aP"/><use transform="matrix(0.06790123456790118,0,0,0.06790123456790118,31.030864197530835,0)" xlink:href="#aG"/><use transform="matrix(0.06790123456790118,0,0,0.06790123456790118,44.61111111111107,0)" xlink:href="#aT"/><use transform="matrix(0.06790123456790118,0,0,0.06790123456790118,58.191358024691304,0)" xlink:href="#aU"/><use transform="matrix(0.06790123456790118,0,0,0.06790123456790118,64.98148148148142,0)" xlink:href="#aG"/></g><g id="i"><use transform="matrix(0.06790123456790118,0,0,0.06790123456790118,0,0)" xlink:href="#aI"/><use transform="matrix(0.06790123456790118,0,0,0.06790123456790118,13.580246913580234,0)" xlink:href="#aN"/></g><path fill="#fff" d="M141-36C126-15 110 5 73 4 37 3 15-17 15-53c-1-64 63-63 125-63 3-35-9-54-41-54-24 1-41 7-42 31l-33-3c5-37 33-52 76-52 45 0 72 20 72 64v82c-1 20 7 32 28 27v20c-31 9-61-2-59-35zM48-53c0 20 12 33 32 33 41-3 63-29 60-74-43 2-92-5-92 41zm67-209c12 18 30 30 39 51-31 2-38-20-57-30-20 10-27 32-59 30 9-22 29-33 41-51h36" id="aV"/><path fill="#fff" d="M33-261c38 41 65 92 65 168S71 34 33 75H2C39 34 66-17 66-93S39-220 2-261h31" id="aW"/><path fill="#fff" d="M68-38c1 34 0 65-14 84H32c9-13 17-26 17-46H33v-38h35" id="aX"/><g id="j"><use transform="matrix(0.06790123456790118,0,0,0.06790123456790118,0,0)" xlink:href="#aM"/><use transform="matrix(0.06790123456790118,0,0,0.06790123456790118,20.30246913580245,0)" xlink:href="#aG"/><use transform="matrix(0.06790123456790118,0,0,0.06790123456790118,33.88271604938269,0)" xlink:href="#aR"/><use transform="matrix(0.06790123456790118,0,0,0.06790123456790118,46.10493827160489,0)" xlink:href="#aV"/><use transform="matrix(0.06790123456790118,0,0,0.06790123456790118,59.68518518518513,0)" xlink:href="#aT"/><use transform="matrix(0.06790123456790118,0,0,0.06790123456790118,73.26543209876536,0)" xlink:href="#aP"/><use transform="matrix(0.06790123456790118,0,0,0.06790123456790118,78.62962962962955,0)" xlink:href="#aR"/><use transform="matrix(0.06790123456790118,0,0,0.06790123456790118,90.85185185185176,0)" xlink:href="#aI"/><use transform="matrix(0.06790123456790118,0,0,0.06790123456790118,104.432098765432,0)" xlink:href="#aW"/><use transform="matrix(0.06790123456790118,0,0,0.06790123456790118,112.51234567901224,0)" xlink:href="#aX"/></g><g id="k"><use transform="matrix(0.06790123456790118,0,0,0.06790123456790118,0,0)" xlink:href="#aR"/><use transform="matrix(0.06790123456790118,0,0,0.06790123456790118,12.22222222222221,0)" xlink:href="#aI"/><use transform="matrix(0.06790123456790118,0,0,0.06790123456790118,25.802469135802447,0)" xlink:href="#aM"/></g><g id="l"><use transform="matrix(0.06790123456790118,0,0,0.06790123456790118,0,0)" xlink:href="#aN"/><use transform="matrix(0.06790123456790118,0,0,0.06790123456790118,13.580246913580234,0)" xlink:href="#aM"/><use transform="matrix(0.06790123456790118,0,0,0.06790123456790118,33.88271604938269,0)" xlink:href="#aJ"/></g><g id="m"><use transform="matrix(0.06790123456790118,0,0,0.06790123456790118,0,0)" xlink:href="#aR"/><use transform="matrix(0.06790123456790118,0,0,0.06790123456790118,12.22222222222221,0)" xlink:href="#aI"/><use transform="matrix(0.06790123456790118,0,0,0.06790123456790118,25.802469135802447,0)" xlink:href="#aT"/><use transform="matrix(0.06790123456790118,0,0,0.06790123456790118,39.38271604938268,0)" xlink:href="#aU"/><use transform="matrix(0.06790123456790118,0,0,0.06790123456790118,46.1728395061728,0)" xlink:href="#aJ"/></g><g id="n"><use transform="matrix(0.06790123456790118,0,0,0.06790123456790118,0,0)" xlink:href="#aT"/><use transform="matrix(0.06790123456790118,0,0,0.06790123456790118,13.580246913580234,0)" xlink:href="#aI"/></g><path fill="#fff" d="M33 0v-38h34V0H33" id="aY"/><g id="o"><use transform="matrix(0.06790123456790118,0,0,0.06790123456790118,0,0)" xlink:href="#aH"/><use transform="matrix(0.06790123456790118,0,0,0.06790123456790118,12.22222222222221,0)" xlink:href="#aP"/><use transform="matrix(0.06790123456790118,0,0,0.06790123456790118,17.586419753086403,0)" xlink:href="#aH"/><use transform="matrix(0.06790123456790118,0,0,0.06790123456790118,29.808641975308618,0)" xlink:href="#aU"/><use transform="matrix(0.06790123456790118,0,0,0.06790123456790118,36.59876543209873,0)" xlink:href="#aG"/><use transform="matrix(0.06790123456790118,0,0,0.06790123456790118,50.17901234567896,0)" xlink:href="#aM"/><use transform="matrix(0.06790123456790118,0,0,0.06790123456790118,70.48148148148141,0)" xlink:href="#aJ"/><use transform="matrix(0.06790123456790118,0,0,0.06790123456790118,84.06172839506165,0)" xlink:href="#aY"/></g><path fill="#fff" d="M135-194c53 0 70 44 70 98 0 56-19 98-73 100-31 1-45-17-59-34 3 33 2 69 2 105H25l-1-265h48c2 10 0 23 3 31 11-24 29-35 60-35zM114-30c33 0 39-31 40-66 0-38-9-64-40-64-56 0-55 130 0 130" id="aZ"/><path fill="#fff" d="M190-63c-7 42-38 67-86 67-59 0-84-38-90-98-12-110 154-137 174-36l-49 2c-2-19-15-32-35-32-30 0-35 28-38 64-6 74 65 87 74 30" id="ba"/><path fill="#fff" d="M190-63c-7 42-38 67-86 67-59 0-84-38-90-98-12-110 154-137 174-36l-49 2c-2-19-15-32-35-32-30 0-35 28-38 64-6 74 65 87 74 30zm-84 77c20 1 33 9 33 27 0 32-36 36-71 33V53c15 1 39 4 39-11 0-13-16-12-31-12L87 0h25" id="bb"/><path fill="#fff" d="M132-34C116-15 102 5 68 4 31 3 10-16 10-54c-1-60 55-63 116-61 1-26-3-47-28-47-18 1-26 9-28 27l-52-2c7-38 36-58 82-57s74 22 75 68l1 82c-1 14 12 18 25 15v27c-30 8-71 5-69-32zm-48 3c29 0 43-24 42-57-32 0-66-3-65 30 0 17 8 27 23 27zm82-228c-2 27-9 52-40 51-27-1-66-46-73 0H29c0-29 9-51 39-51 28 0 66 44 74 0h24" id="bc"/><g id="p"><use transform="matrix(0.07407407407407404,0,0,0.07407407407407404,0,0)" xlink:href="#aA"/><use transform="matrix(0.07407407407407404,0,0,0.07407407407407404,19.185185185185176,0)" xlink:href="#aZ"/><use transform="matrix(0.07407407407407404,0,0,0.07407407407407404,35.40740740740739,0)" xlink:href="#aC"/><use transform="matrix(0.07407407407407404,0,0,0.07407407407407404,42.814814814814795,0)" xlink:href="#ax"/><use transform="matrix(0.07407407407407404,0,0,0.07407407407407404,50.2222222222222,0)" xlink:href="#ba"/><use transform="matrix(0.07407407407407404,0,0,0.07407407407407404,65.03703703703701,0)" xlink:href="#av"/><use transform="matrix(0.07407407407407404,0,0,0.07407407407407404,79.85185185185182,0)" xlink:href="#bb"/><use transform="matrix(0.07407407407407404,0,0,0.07407407407407404,94.66666666666663,0)" xlink:href="#bc"/><use transform="matrix(0.07407407407407404,0,0,0.07407407407407404,109.48148148148144,0)" xlink:href="#ay"/></g><path fill="#fff" d="M275 0h-61l-44-196L126 0H64L0-248h53L97-49l45-199h58l43 199 44-199h52" id="bd"/><path fill="#fff" d="M185-48c-13 30-37 53-82 52C43 2 14-33 14-96s30-98 90-98c62 0 83 45 84 108H66c0 31 8 55 39 56 18 0 30-7 34-22zm-45-69c5-46-57-63-70-21-2 6-4 13-4 21h74" id="be"/><path fill="#fff" d="M135-194c52 0 70 43 70 98 0 56-19 99-73 100-30 1-46-15-58-35L72 0H24l1-261h50v104c11-23 29-37 60-37zM114-30c31 0 40-27 40-66 0-37-7-63-39-63s-41 28-41 65c0 36 8 64 40 64" id="bf"/><g id="q"><use transform="matrix(0.07407407407407404,0,0,0.07407407407407404,0,0)" xlink:href="#bd"/><use transform="matrix(0.07407407407407404,0,0,0.07407407407407404,24.59259259259258,0)" xlink:href="#be"/><use transform="matrix(0.07407407407407404,0,0,0.07407407407407404,39.40740740740739,0)" xlink:href="#bf"/></g><path fill="#fff" d="M212-179c-10-28-35-45-73-45-59 0-87 40-87 99 0 60 29 101 89 101 43 0 62-24 78-52l27 14C228-24 195 4 139 4 59 4 22-46 18-125c-6-104 99-153 187-111 19 9 31 26 39 46" id="bg"/><path fill="#fff" d="M33-154v-36h34v36H33zM33 0v-36h34V0H33" id="bh"/><g id="r"><use transform="matrix(0.055555555555555504,0,0,0.055555555555555504,0,0)" xlink:href="#aE"/><use transform="matrix(0.055555555555555504,0,0,0.055555555555555504,5.55555555555555,0)" xlink:href="#bg"/><use transform="matrix(0.055555555555555504,0,0,0.055555555555555504,19.944444444444425,0)" xlink:href="#aI"/><use transform="matrix(0.055555555555555504,0,0,0.055555555555555504,31.055555555555525,0)" xlink:href="#aT"/><use transform="matrix(0.055555555555555504,0,0,0.055555555555555504,42.16666666666663,0)" xlink:href="#aU"/><use transform="matrix(0.055555555555555504,0,0,0.055555555555555504,47.72222222222218,0)" xlink:href="#aJ"/><use transform="matrix(0.055555555555555504,0,0,0.055555555555555504,58.83333333333328,0)" xlink:href="#aP"/><use transform="matrix(0.055555555555555504,0,0,0.055555555555555504,63.222222222222165,0)" xlink:href="#aT"/><use transform="matrix(0.055555555555555504,0,0,0.055555555555555504,74.33333333333326,0)" xlink:href="#aG"/><use transform="matrix(0.055555555555555504,0,0,0.055555555555555504,85.44444444444436,0)" xlink:href="#aO"/><use transform="matrix(0.055555555555555504,0,0,0.055555555555555504,92.05555555555546,0)" xlink:href="#bh"/></g><path fill="#fff" d="M205 0l-28-72H64L36 0H1l101-248h38L239 0h-34zm-38-99l-47-123c-12 45-31 82-46 123h93" id="bi"/><path fill="#fff" d="M85-194c31 0 48 13 60 33l-1-100h32l1 261h-30c-2-10 0-23-3-31C134-8 116 4 85 4 32 4 16-35 15-94c0-66 23-100 70-100zm9 24c-40 0-46 34-46 75 0 40 6 74 45 74 42 0 51-32 51-76 0-42-9-74-50-73" id="bj"/><path fill="#fff" d="M24-231v-30h32v30H24zM-9 49c24 4 33-6 33-30v-209h32V24c2 40-23 58-65 49V49" id="bk"/><g id="s"><use transform="matrix(0.055555555555555504,0,0,0.055555555555555504,0,0)" xlink:href="#bi"/><use transform="matrix(0.055555555555555504,0,0,0.055555555555555504,13.333333333333321,0)" xlink:href="#bj"/><use transform="matrix(0.055555555555555504,0,0,0.055555555555555504,24.44444444444442,0)" xlink:href="#aI"/><use transform="matrix(0.055555555555555504,0,0,0.055555555555555504,35.55555555555552,0)" xlink:href="#aT"/><use transform="matrix(0.055555555555555504,0,0,0.055555555555555504,46.66666666666662,0)" xlink:href="#aP"/><use transform="matrix(0.055555555555555504,0,0,0.055555555555555504,51.05555555555551,0)" xlink:href="#aH"/><use transform="matrix(0.055555555555555504,0,0,0.055555555555555504,61.0555555555555,0)" xlink:href="#aY"/><use transform="matrix(0.055555555555555504,0,0,0.055555555555555504,66.61111111111106,0)" xlink:href="#bk"/><use transform="matrix(0.055555555555555504,0,0,0.055555555555555504,70.99999999999994,0)" xlink:href="#aH"/><path fill="#8080ff" d="M-1 1.4h83v1.45H-1z"/></g><use transform="matrix(0.055555555555555504,0,0,0.055555555555555504,0,0)" xlink:href="#aG" id="t"/><path fill="#fff" d="M137 0h-34L2-248h35l83 218 83-218h36" id="bl"/><g id="u"><use transform="matrix(0.055555555555555504,0,0,0.055555555555555504,0,0)" xlink:href="#bl"/><use transform="matrix(0.055555555555555504,0,0,0.055555555555555504,12.6111111111111,0)" xlink:href="#aN"/><use transform="matrix(0.055555555555555504,0,0,0.055555555555555504,23.7222222222222,0)" xlink:href="#aG"/><use transform="matrix(0.055555555555555504,0,0,0.055555555555555504,34.8333333333333,0)" xlink:href="#aY"/><use transform="matrix(0.055555555555555504,0,0,0.055555555555555504,40.38888888888885,0)" xlink:href="#bk"/><use transform="matrix(0.055555555555555504,0,0,0.055555555555555504,44.777777777777736,0)" xlink:href="#aH"/><use transform="matrix(0.055555555555555504,0,0,0.055555555555555504,54.77777777777773,0)" xlink:href="#aK"/></g><path fill="#fff" d="M30 0v-248h187v28H63v79h144v27H63v87h162V0H30" id="bm"/><path fill="#fff" d="M141 0L90-78 38 0H4l68-98-65-92h35l48 74 47-74h35l-64 92 68 98h-35" id="bn"/><path fill="#fff" d="M115-194c53 0 69 39 70 98 0 66-23 100-70 100C84 3 66-7 56-30L54 0H23l1-261h32v101c10-23 28-34 59-34zm-8 174c40 0 45-34 45-75 0-40-5-75-45-74-42 0-51 32-51 76 0 43 10 73 51 73" id="bo"/><g id="w"><use transform="matrix(0.06790123456790118,0,0,0.06790123456790118,0,0)" xlink:href="#bm"/><use transform="matrix(0.06790123456790118,0,0,0.06790123456790118,16.296296296296283,0)" xlink:href="#bn"/><use transform="matrix(0.06790123456790118,0,0,0.06790123456790118,28.518518518518494,0)" xlink:href="#aP"/><use transform="matrix(0.06790123456790118,0,0,0.06790123456790118,33.88271604938269,0)" xlink:href="#bo"/><use transform="matrix(0.06790123456790118,0,0,0.06790123456790118,47.46296296296292,0)" xlink:href="#aP"/></g><use transform="matrix(0.06790123456790118,0,0,0.06790123456790118,0,0)" xlink:href="#aI" id="x"/><g id="y"><use transform="matrix(0.06790123456790118,0,0,0.06790123456790118,0,0)" xlink:href="#aR"/><use transform="matrix(0.06790123456790118,0,0,0.06790123456790118,12.22222222222221,0)" xlink:href="#aI"/><use transform="matrix(0.06790123456790118,0,0,0.06790123456790118,25.802469135802447,0)" xlink:href="#aT"/><use transform="matrix(0.06790123456790118,0,0,0.06790123456790118,39.38271604938268,0)" xlink:href="#aU"/><use transform="matrix(0.06790123456790118,0,0,0.06790123456790118,46.1728395061728,0)" xlink:href="#aG"/><use transform="matrix(0.06790123456790118,0,0,0.06790123456790118,59.75308641975303,0)" xlink:href="#aN"/><use transform="matrix(0.06790123456790118,0,0,0.06790123456790118,73.33333333333327,0)" xlink:href="#bj"/><use transform="matrix(0.06790123456790118,0,0,0.06790123456790118,86.91358024691351,0)" xlink:href="#aI"/></g><use transform="matrix(0.06790123456790118,0,0,0.06790123456790118,0,0)" xlink:href="#aG" id="z"/><use transform="matrix(0.06790123456790118,0,0,0.06790123456790118,0,0)" xlink:href="#aJ" id="A"/><path fill="#fff" d="M177-190C167-65 218 103 67 71c-23-6-38-20-44-43l32-5c15 47 100 32 89-28v-30C133-14 115 1 83 1 29 1 15-40 15-95c0-56 16-97 71-98 29-1 48 16 59 35 1-10 0-23 2-32h30zM94-22c36 0 50-32 50-73 0-42-14-75-50-75-39 0-46 34-46 75s6 73 46 73" id="bp"/><g id="B"><use transform="matrix(0.06790123456790118,0,0,0.06790123456790118,0,0)" xlink:href="#aF"/><use transform="matrix(0.06790123456790118,0,0,0.06790123456790118,13.580246913580234,0)" xlink:href="#aJ"/><use transform="matrix(0.06790123456790118,0,0,0.06790123456790118,27.16049382716047,0)" xlink:href="#bp"/><use transform="matrix(0.06790123456790118,0,0,0.06790123456790118,40.740740740740705,0)" xlink:href="#aP"/><use transform="matrix(0.06790123456790118,0,0,0.06790123456790118,46.10493827160489,0)" xlink:href="#aT"/><use transform="matrix(0.06790123456790118,0,0,0.06790123456790118,59.68518518518513,0)" xlink:href="#aJ"/></g><g id="C"><use transform="matrix(0.06790123456790118,0,0,0.06790123456790118,0,0)" xlink:href="#bj"/><use transform="matrix(0.06790123456790118,0,0,0.06790123456790118,13.580246913580234,0)" xlink:href="#aJ"/></g><path fill="#fff" d="M96-169c-40 0-48 33-48 73s9 75 48 75c24 0 41-14 43-38l32 2c-6 37-31 61-74 61-59 0-76-41-82-99-10-93 101-131 147-64 4 7 5 14 7 22l-32 3c-4-21-16-35-41-35zm3 187c19-1 33 8 33 26 0 31-30 33-64 32V58c18 2 39 4 41-13 1-15-18-13-34-13L87 0h19" id="bq"/><path fill="#fff" d="M141-36C126-15 110 5 73 4 37 3 15-17 15-53c-1-64 63-63 125-63 3-35-9-54-41-54-24 1-41 7-42 31l-33-3c5-37 33-52 76-52 45 0 72 20 72 64v82c-1 20 7 32 28 27v20c-31 9-61-2-59-35zM48-53c0 20 12 33 32 33 41-3 63-29 60-74-43 2-92-5-92 41zm117-205c-3 23-9 48-36 47-26-1-65-44-74 0H39c4-23 8-48 36-47s64 44 74 0h16" id="br"/><g id="D"><use transform="matrix(0.06790123456790118,0,0,0.06790123456790118,0,0)" xlink:href="#aJ"/><use transform="matrix(0.06790123456790118,0,0,0.06790123456790118,13.580246913580234,0)" xlink:href="#aF"/><use transform="matrix(0.06790123456790118,0,0,0.06790123456790118,27.16049382716047,0)" xlink:href="#aS"/><use transform="matrix(0.06790123456790118,0,0,0.06790123456790118,32.52469135802466,0)" xlink:href="#aP"/><use transform="matrix(0.06790123456790118,0,0,0.06790123456790118,37.88888888888886,0)" xlink:href="#aR"/><use transform="matrix(0.06790123456790118,0,0,0.06790123456790118,50.11111111111107,0)" xlink:href="#aJ"/><use transform="matrix(0.06790123456790118,0,0,0.06790123456790118,63.691358024691304,0)" xlink:href="#bq"/><use transform="matrix(0.06790123456790118,0,0,0.06790123456790118,75.91358024691351,0)" xlink:href="#br"/><use transform="matrix(0.06790123456790118,0,0,0.06790123456790118,89.49382716049375,0)" xlink:href="#aI"/></g><g id="E"><use transform="matrix(0.06790123456790118,0,0,0.06790123456790118,0,0)" xlink:href="#bj"/><use transform="matrix(0.06790123456790118,0,0,0.06790123456790118,13.580246913580234,0)" xlink:href="#aI"/></g><path fill="#fff" d="M108 0H70L1-190h34L89-25l56-165h34" id="bs"/><g id="F"><use transform="matrix(0.06790123456790118,0,0,0.06790123456790118,0,0)" xlink:href="#bi"/><use transform="matrix(0.06790123456790118,0,0,0.06790123456790118,15.820987654320977,0)" xlink:href="#bs"/><use transform="matrix(0.06790123456790118,0,0,0.06790123456790118,28.04320987654319,0)" xlink:href="#aJ"/><use transform="matrix(0.06790123456790118,0,0,0.06790123456790118,41.62345679012342,0)" xlink:href="#aS"/><use transform="matrix(0.06790123456790118,0,0,0.06790123456790118,46.987654320987616,0)" xlink:href="#aP"/><use transform="matrix(0.06790123456790118,0,0,0.06790123456790118,52.351851851851805,0)" xlink:href="#bi"/><use transform="matrix(0.06790123456790118,0,0,0.06790123456790118,68.6481481481481,0)" xlink:href="#aN"/><use transform="matrix(0.06790123456790118,0,0,0.06790123456790118,82.22839506172834,0)" xlink:href="#aU"/><use transform="matrix(0.06790123456790118,0,0,0.06790123456790118,89.01851851851843,0)" xlink:href="#aI"/><use transform="matrix(0.06790123456790118,0,0,0.06790123456790118,102.59876543209869,0)" xlink:href="#aY"/></g><path fill="#fff" d="M30-248c87 1 191-15 191 75 0 78-77 80-158 76V0H30v-248zm33 125c57 0 124 11 124-50 0-59-68-47-124-48v98" id="bt"/><g id="G"><use transform="matrix(0.07407407407407404,0,0,0.07407407407407404,0,0)" xlink:href="#bt"/><use transform="matrix(0.07407407407407404,0,0,0.07407407407407404,17.77777777777777,0)" xlink:href="#aJ"/><use transform="matrix(0.07407407407407404,0,0,0.07407407407407404,32.59259259259258,0)" xlink:href="#bp"/><use transform="matrix(0.07407407407407404,0,0,0.07407407407407404,47.40740740740739,0)" xlink:href="#aP"/><use transform="matrix(0.07407407407407404,0,0,0.07407407407407404,53.25925925925924,0)" xlink:href="#aT"/><use transform="matrix(0.07407407407407404,0,0,0.07407407407407404,68.07407407407405,0)" xlink:href="#aJ"/></g><g id="H"><use transform="matrix(0.07407407407407404,0,0,0.07407407407407404,0,0)" xlink:href="#bj"/><use transform="matrix(0.07407407407407404,0,0,0.07407407407407404,14.814814814814808,0)" xlink:href="#aJ"/></g><g id="I"><use transform="matrix(0.07407407407407404,0,0,0.07407407407407404,0,0)" xlink:href="#bi"/><use transform="matrix(0.07407407407407404,0,0,0.07407407407407404,17.77777777777777,0)" xlink:href="#aF"/><use transform="matrix(0.07407407407407404,0,0,0.07407407407407404,32.59259259259258,0)" xlink:href="#aS"/><use transform="matrix(0.07407407407407404,0,0,0.07407407407407404,38.44444444444443,0)" xlink:href="#aP"/><use transform="matrix(0.07407407407407404,0,0,0.07407407407407404,44.296296296296276,0)" xlink:href="#aR"/><use transform="matrix(0.07407407407407404,0,0,0.07407407407407404,57.629629629629605,0)" xlink:href="#aJ"/><use transform="matrix(0.07407407407407404,0,0,0.07407407407407404,72.44444444444441,0)" xlink:href="#bq"/><use transform="matrix(0.07407407407407404,0,0,0.07407407407407404,85.77777777777774,0)" xlink:href="#br"/><use transform="matrix(0.07407407407407404,0,0,0.07407407407407404,100.59259259259255,0)" xlink:href="#aI"/></g><g id="J"><use transform="matrix(0.055555555555555504,0,0,0.055555555555555504,0,0)" xlink:href="#aE"/><use transform="matrix(0.055555555555555504,0,0,0.055555555555555504,5.55555555555555,0)" xlink:href="#bg"/><use transform="matrix(0.055555555555555504,0,0,0.055555555555555504,19.944444444444425,0)" xlink:href="#aI"/><use transform="matrix(0.055555555555555504,0,0,0.055555555555555504,31.055555555555525,0)" xlink:href="#aT"/><use transform="matrix(0.055555555555555504,0,0,0.055555555555555504,42.16666666666663,0)" xlink:href="#aU"/><use transform="matrix(0.055555555555555504,0,0,0.055555555555555504,47.72222222222218,0)" xlink:href="#aJ"/><use transform="matrix(0.055555555555555504,0,0,0.055555555555555504,58.83333333333328,0)" xlink:href="#aP"/><use transform="matrix(0.055555555555555504,0,0,0.055555555555555504,63.222222222222165,0)" xlink:href="#aT"/><use transform="matrix(0.055555555555555504,0,0,0.055555555555555504,74.33333333333326,0)" xlink:href="#aG"/><use transform="matrix(0.055555555555555504,0,0,0.055555555555555504,85.44444444444436,0)" xlink:href="#aO"/><use transform="matrix(0.055555555555555504,0,0,0.055555555555555504,92.05555555555546,0)" xlink:href="#bh"/></g><path fill="#fff" d="M153-248C145-148 188 4 80 4 36 3 13-21 6-62l32-5c4 25 16 42 43 43 27 0 39-20 39-49v-147H72v-28h81" id="bu"/><path fill="#fff" d="M185-189c-5-48-123-54-124 2 14 75 158 14 163 119 3 78-121 87-175 55-17-10-28-26-33-46l33-7c5 56 141 63 141-1 0-78-155-14-162-118-5-82 145-84 179-34 5 7 8 16 11 25" id="bv"/><g id="K"><use transform="matrix(0.055555555555555504,0,0,0.055555555555555504,0,0)" xlink:href="#bu"/><use transform="matrix(0.055555555555555504,0,0,0.055555555555555504,9.999999999999991,0)" xlink:href="#aJ"/><use transform="matrix(0.055555555555555504,0,0,0.055555555555555504,21.111111111111093,0)" xlink:href="#bs"/><use transform="matrix(0.055555555555555504,0,0,0.055555555555555504,31.11111111111109,0)" xlink:href="#aJ"/><use transform="matrix(0.055555555555555504,0,0,0.055555555555555504,42.222222222222186,0)" xlink:href="#bv"/><use transform="matrix(0.055555555555555504,0,0,0.055555555555555504,55.55555555555551,0)" xlink:href="#aR"/><use transform="matrix(0.055555555555555504,0,0,0.055555555555555504,65.5555555555555,0)" xlink:href="#aO"/><use transform="matrix(0.055555555555555504,0,0,0.055555555555555504,72.1666666666666,0)" xlink:href="#aP"/><use transform="matrix(0.055555555555555504,0,0,0.055555555555555504,76.55555555555549,0)" xlink:href="#aF"/><use transform="matrix(0.055555555555555504,0,0,0.055555555555555504,87.66666666666659,0)" xlink:href="#aU"/><use transform="matrix(0.055555555555555504,0,0,0.055555555555555504,93.22222222222214,0)" xlink:href="#aK"/></g><g id="L"><use transform="matrix(0.06790123456790118,0,0,0.06790123456790118,0,0)" xlink:href="#bt"/><use transform="matrix(0.06790123456790118,0,0,0.06790123456790118,16.296296296296283,0)" xlink:href="#aO"/><use transform="matrix(0.06790123456790118,0,0,0.06790123456790118,24.376543209876523,0)" xlink:href="#aI"/><use transform="matrix(0.06790123456790118,0,0,0.06790123456790118,37.956790123456756,0)" xlink:href="#bs"/><use transform="matrix(0.06790123456790118,0,0,0.06790123456790118,50.17901234567897,0)" xlink:href="#aG"/><use transform="matrix(0.06790123456790118,0,0,0.06790123456790118,63.7592592592592,0)" xlink:href="#aM"/></g><g id="M"><use transform="matrix(0.06790123456790118,0,0,0.06790123456790118,0,0)" xlink:href="#aU"/><use transform="matrix(0.06790123456790118,0,0,0.06790123456790118,6.790123456790117,0)" xlink:href="#aI"/><use transform="matrix(0.06790123456790118,0,0,0.06790123456790118,20.370370370370352,0)" xlink:href="#bj"/><use transform="matrix(0.06790123456790118,0,0,0.06790123456790118,33.950617283950585,0)" xlink:href="#aJ"/><use transform="matrix(0.06790123456790118,0,0,0.06790123456790118,47.53086419753082,0)" xlink:href="#aH"/></g><g id="N"><use transform="matrix(0.06790123456790118,0,0,0.06790123456790118,0,0)" xlink:href="#aJ"/><use transform="matrix(0.06790123456790118,0,0,0.06790123456790118,13.580246913580234,0)" xlink:href="#aH"/></g><path fill="#fff" d="M101-234c-31-9-42 10-38 44h38v23H63V0H32v-167H5v-23h27c-7-52 17-82 69-68v24" id="bw"/><g id="O"><use transform="matrix(0.06790123456790118,0,0,0.06790123456790118,0,0)" xlink:href="#bw"/><use transform="matrix(0.06790123456790118,0,0,0.06790123456790118,6.790123456790117,0)" xlink:href="#aN"/><use transform="matrix(0.06790123456790118,0,0,0.06790123456790118,20.370370370370352,0)" xlink:href="#aT"/><use transform="matrix(0.06790123456790118,0,0,0.06790123456790118,33.950617283950585,0)" xlink:href="#aR"/><use transform="matrix(0.06790123456790118,0,0,0.06790123456790118,46.17283950617279,0)" xlink:href="#aP"/><use transform="matrix(0.06790123456790118,0,0,0.06790123456790118,51.53703703703698,0)" xlink:href="#aI"/><use transform="matrix(0.06790123456790118,0,0,0.06790123456790118,65.11728395061722,0)" xlink:href="#aT"/><use transform="matrix(0.06790123456790118,0,0,0.06790123456790118,78.69753086419746,0)" xlink:href="#aJ"/><use transform="matrix(0.06790123456790118,0,0,0.06790123456790118,92.2777777777777,0)" xlink:href="#aS"/><use transform="matrix(0.06790123456790118,0,0,0.06790123456790118,97.64197530864189,0)" xlink:href="#aP"/><use transform="matrix(0.06790123456790118,0,0,0.06790123456790118,103.00617283950608,0)" xlink:href="#bj"/><use transform="matrix(0.06790123456790118,0,0,0.06790123456790118,116.58641975308632,0)" xlink:href="#aJ"/><use transform="matrix(0.06790123456790118,0,0,0.06790123456790118,130.16666666666654,0)" xlink:href="#bj"/><use transform="matrix(0.06790123456790118,0,0,0.06790123456790118,143.74691358024677,0)" xlink:href="#aG"/><use transform="matrix(0.06790123456790118,0,0,0.06790123456790118,157.327160493827,0)" xlink:href="#aH"/></g><g id="P"><use transform="matrix(0.06790123456790118,0,0,0.06790123456790118,0,0)" xlink:href="#bi"/><use transform="matrix(0.06790123456790118,0,0,0.06790123456790118,15.820987654320977,0)" xlink:href="#bs"/><use transform="matrix(0.06790123456790118,0,0,0.06790123456790118,28.04320987654319,0)" xlink:href="#aJ"/><use transform="matrix(0.06790123456790118,0,0,0.06790123456790118,41.62345679012342,0)" xlink:href="#aS"/><use transform="matrix(0.06790123456790118,0,0,0.06790123456790118,46.987654320987616,0)" xlink:href="#aP"/><use transform="matrix(0.06790123456790118,0,0,0.06790123456790118,52.351851851851805,0)" xlink:href="#bi"/><use transform="matrix(0.06790123456790118,0,0,0.06790123456790118,68.6481481481481,0)" xlink:href="#aN"/><use transform="matrix(0.06790123456790118,0,0,0.06790123456790118,82.22839506172834,0)" xlink:href="#aU"/><use transform="matrix(0.06790123456790118,0,0,0.06790123456790118,89.01851851851843,0)" xlink:href="#aI"/></g><g id="Q"><use transform="matrix(0.06790123456790118,0,0,0.06790123456790118,0,0)" xlink:href="#aF"/><use transform="matrix(0.06790123456790118,0,0,0.06790123456790118,13.580246913580234,0)" xlink:href="#aJ"/><use transform="matrix(0.06790123456790118,0,0,0.06790123456790118,27.16049382716047,0)" xlink:href="#aO"/><use transform="matrix(0.06790123456790118,0,0,0.06790123456790118,35.240740740740705,0)" xlink:href="#aJ"/></g><use transform="matrix(0.06790123456790118,0,0,0.06790123456790118,0,0)" xlink:href="#aI" id="R"/><path fill="#fff" d="M100-194c63 0 86 42 84 106H49c0 40 14 67 53 68 26 1 43-12 49-29l28 8c-11 28-37 45-77 45C44 4 14-33 15-96c1-61 26-98 85-98zm52 81c6-60-76-77-97-28-3 7-6 17-6 28h103zm-74-98c8-23 27-35 38-54h36v5l-58 49H78" id="bx"/><g id="S"><use transform="matrix(0.06790123456790118,0,0,0.06790123456790118,0,0)" xlink:href="#aJ"/><use transform="matrix(0.06790123456790118,0,0,0.06790123456790118,13.580246913580234,0)" xlink:href="#aU"/><use transform="matrix(0.06790123456790118,0,0,0.06790123456790118,20.370370370370352,0)" xlink:href="#aO"/><use transform="matrix(0.06790123456790118,0,0,0.06790123456790118,28.450617283950592,0)" xlink:href="#aJ"/><use transform="matrix(0.06790123456790118,0,0,0.06790123456790118,42.030864197530825,0)" xlink:href="#bs"/><use transform="matrix(0.06790123456790118,0,0,0.06790123456790118,54.25308641975303,0)" xlink:href="#bx"/><use transform="matrix(0.06790123456790118,0,0,0.06790123456790118,67.83333333333327,0)" xlink:href="#aH"/></g><g id="T"><use transform="matrix(0.06790123456790118,0,0,0.06790123456790118,0,0)" xlink:href="#aT"/><use transform="matrix(0.06790123456790118,0,0,0.06790123456790118,13.580246913580234,0)" xlink:href="#aJ"/><use transform="matrix(0.06790123456790118,0,0,0.06790123456790118,27.16049382716047,0)" xlink:href="#bs"/><use transform="matrix(0.06790123456790118,0,0,0.06790123456790118,39.38271604938268,0)" xlink:href="#aG"/><use transform="matrix(0.06790123456790118,0,0,0.06790123456790118,52.96296296296291,0)" xlink:href="#bp"/><use transform="matrix(0.06790123456790118,0,0,0.06790123456790118,66.54320987654314,0)" xlink:href="#aJ"/><use transform="matrix(0.06790123456790118,0,0,0.06790123456790118,80.12345679012338,0)" xlink:href="#bj"/><use transform="matrix(0.06790123456790118,0,0,0.06790123456790118,93.70370370370362,0)" xlink:href="#aI"/><use transform="matrix(0.06790123456790118,0,0,0.06790123456790118,107.28395061728386,0)" xlink:href="#aO"/><use transform="matrix(0.06790123456790118,0,0,0.06790123456790118,114.00617283950608,0)" xlink:href="#aY"/></g><path fill="#333" d="M24 0v-248h195v40H76v63h132v40H76v65h150V0H24" id="by"/><path fill="#333" d="M144 0l-44-69L55 0H2l70-98-66-92h53l41 62 40-62h54l-67 91 71 99h-54" id="bz"/><path fill="#333" d="M25-224v-37h50v37H25zM25 0v-190h50V0H25" id="bA"/><path fill="#333" d="M135-194c52 0 70 43 70 98 0 56-19 99-73 100-30 1-46-15-58-35L72 0H24l1-261h50v104c11-23 29-37 60-37zM114-30c31 0 40-27 40-66 0-37-7-63-39-63s-41 28-41 65c0 36 8 64 40 64" id="bB"/><g id="U"><use transform="matrix(0.04938271604938272,0,0,0.04938271604938272,0,0)" xlink:href="#by"/><use transform="matrix(0.04938271604938272,0,0,0.04938271604938272,11.851851851851853,0)" xlink:href="#bz"/><use transform="matrix(0.04938271604938272,0,0,0.04938271604938272,21.7283950617284,0)" xlink:href="#bA"/><use transform="matrix(0.04938271604938272,0,0,0.04938271604938272,26.666666666666668,0)" xlink:href="#bB"/><use transform="matrix(0.04938271604938272,0,0,0.04938271604938272,37.48148148148149,0)" xlink:href="#bA"/></g><path fill="#333" d="M238-95c0 69-44 99-111 99C63 4 22-25 22-93v-155h51v151c-1 38 19 59 55 60 90 1 49-130 58-211h52v153" id="bC"/><path fill="#333" d="M137-138c1-29-70-34-71-4 15 46 118 7 119 86 1 83-164 76-172 9l43-7c4 19 20 25 44 25 33 8 57-30 24-41C81-84 22-81 20-136c-2-80 154-74 161-7" id="bD"/><path fill="#333" d="M133-34C117-15 103 5 69 4 32 3 11-16 11-54c-1-60 55-63 116-61 1-26-3-47-28-47-18 1-26 9-28 27l-52-2c7-38 36-58 82-57s74 22 75 68l1 82c-1 14 12 18 25 15v27c-30 8-71 5-69-32zm-48 3c29 0 43-24 42-57-32 0-66-3-65 30 0 17 8 27 23 27" id="bE"/><g id="V"><use transform="matrix(0.04938271604938272,0,0,0.04938271604938272,0,0)" xlink:href="#bC"/><use transform="matrix(0.04938271604938272,0,0,0.04938271604938272,12.790123456790125,0)" xlink:href="#bD"/><use transform="matrix(0.04938271604938272,0,0,0.04938271604938272,22.66666666666667,0)" xlink:href="#bE"/></g><path fill="#333" d="M20 75v-336h95v34H67V41h48v34H20" id="bF"/><path fill="#333" d="M186 0v-106H76V0H24v-248h52v99h110v-99h50V0h-50" id="bG"/><path fill="#333" d="M136-208V0H84v-208H4v-40h212v40h-80" id="bH"/><path fill="#333" d="M24-248c93 1 206-16 204 79-1 75-69 88-152 82V0H24v-248zm52 121c47 0 100 7 100-41 0-47-54-39-100-39v80" id="bI"/><path fill="#333" d="M169-182c-1-43-94-46-97-3 18 66 151 10 154 114 3 95-165 93-204 36-6-8-10-19-12-30l50-8c3 46 112 56 116 5-17-69-150-10-154-114-4-87 153-88 188-35 5 8 8 18 10 28" id="bJ"/><path fill="#333" d="M4 75V41h49v-268H4v-34h96V75H4" id="bK"/><g id="W"><use transform="matrix(0.04938271604938272,0,0,0.04938271604938272,0,0)" xlink:href="#bF"/><use transform="matrix(0.04938271604938272,0,0,0.04938271604938272,5.8765432098765435,0)" xlink:href="#bG"/><use transform="matrix(0.04938271604938272,0,0,0.04938271604938272,18.666666666666668,0)" xlink:href="#bH"/><use transform="matrix(0.04938271604938272,0,0,0.04938271604938272,29.481481481481477,0)" xlink:href="#bH"/><use transform="matrix(0.04938271604938272,0,0,0.04938271604938272,40.2962962962963,0)" xlink:href="#bI"/><use transform="matrix(0.04938271604938272,0,0,0.04938271604938272,52.14814814814815,0)" xlink:href="#bJ"/><use transform="matrix(0.04938271604938272,0,0,0.04938271604938272,64,0)" xlink:href="#bK"/></g><path fill="#fff" d="M24-248c93 1 206-16 204 79-1 75-69 88-152 82V0H24v-248zm52 121c47 0 100 7 100-41 0-47-54-39-100-39v80" id="bL"/><path fill="#fff" d="M24 0v-248h52V0H24" id="bM"/><g id="X"><use transform="matrix(0.07407407407407404,0,0,0.07407407407407404,0,0)" xlink:href="#aA"/><use transform="matrix(0.07407407407407404,0,0,0.07407407407407404,19.185185185185176,0)" xlink:href="#bL"/><use transform="matrix(0.07407407407407404,0,0,0.07407407407407404,36.96296296296295,0)" xlink:href="#bM"/></g><g id="Y"><use transform="matrix(0.06790123456790118,0,0,0.06790123456790118,0,0)" xlink:href="#bj"/><use transform="matrix(0.06790123456790118,0,0,0.06790123456790118,13.580246913580234,0)" xlink:href="#aG"/></g><path fill="#fff" d="M0 4l72-265h28L28 4H0" id="bN"/><path fill="#fff" d="M197 0v-115H63V0H30v-248h33v105h134v-105h34V0h-34" id="bO"/><path fill="#fff" d="M127-220V0H93v-220H8v-28h204v28h-85" id="bP"/><g id="Z"><use transform="matrix(0.06790123456790118,0,0,0.06790123456790118,0,0)" xlink:href="#bu"/><use transform="matrix(0.06790123456790118,0,0,0.06790123456790118,12.22222222222221,0)" xlink:href="#aH"/><use transform="matrix(0.06790123456790118,0,0,0.06790123456790118,24.44444444444442,0)" xlink:href="#aI"/><use transform="matrix(0.06790123456790118,0,0,0.06790123456790118,38.02469135802465,0)" xlink:href="#aT"/><use transform="matrix(0.06790123456790118,0,0,0.06790123456790118,51.60493827160489,0)" xlink:href="#bN"/><use transform="matrix(0.06790123456790118,0,0,0.06790123456790118,58.395061728395,0)" xlink:href="#bO"/><use transform="matrix(0.06790123456790118,0,0,0.06790123456790118,75.98148148148141,0)" xlink:href="#bP"/><use transform="matrix(0.06790123456790118,0,0,0.06790123456790118,90.85185185185176,0)" xlink:href="#bP"/><use transform="matrix(0.06790123456790118,0,0,0.06790123456790118,105.72222222222211,0)" xlink:href="#bt"/><use transform="matrix(0.06790123456790118,0,0,0.06790123456790118,122.01851851851839,0)" xlink:href="#bv"/></g><path fill="#fff" d="M33 0v-248h34V0H33" id="bQ"/><g id="aa"><use transform="matrix(0.06790123456790118,0,0,0.06790123456790118,0,0)" xlink:href="#bi"/><use transform="matrix(0.06790123456790118,0,0,0.06790123456790118,16.296296296296283,0)" xlink:href="#bt"/><use transform="matrix(0.06790123456790118,0,0,0.06790123456790118,32.59259259259257,0)" xlink:href="#bQ"/><use transform="matrix(0.06790123456790118,0,0,0.06790123456790118,39.38271604938269,0)" xlink:href="#aY"/></g><path fill="#333" d="M176-78C186 10 51 31 16-35c-5-9-9-19-11-32l52-8c4 21 12 37 35 38 23 0 32-16 32-40v-130H75v-41h101v170" id="bR"/><path fill="#333" d="M110-194c64 0 96 36 96 99 0 64-35 99-97 99-61 0-95-36-95-99 0-62 34-99 96-99zm-1 164c35 0 45-28 45-65 0-40-10-65-43-65-34 0-45 26-45 65 0 36 10 65 43 65" id="bS"/><path fill="#333" d="M135-194c87-1 58 113 63 194h-50c-7-57 23-157-34-157-59 0-34 97-39 157H25l-1-190h47c2 12-1 28 3 38 12-26 28-41 61-42" id="bT"/><path fill="#333" d="M4 7l51-268h42L46 7H4" id="bU"/><g id="ab"><use transform="matrix(0.04938271604938272,0,0,0.04938271604938272,0,0)" xlink:href="#bF"/><use transform="matrix(0.04938271604938272,0,0,0.04938271604938272,5.8765432098765435,0)" xlink:href="#bR"/><use transform="matrix(0.04938271604938272,0,0,0.04938271604938272,15.753086419753087,0)" xlink:href="#bD"/><use transform="matrix(0.04938271604938272,0,0,0.04938271604938272,25.629629629629633,0)" xlink:href="#bS"/><use transform="matrix(0.04938271604938272,0,0,0.04938271604938272,36.44444444444445,0)" xlink:href="#bT"/><use transform="matrix(0.04938271604938272,0,0,0.04938271604938272,47.25925925925927,0)" xlink:href="#bU"/><use transform="matrix(0.04938271604938272,0,0,0.04938271604938272,52.19753086419754,0)" xlink:href="#bG"/><use transform="matrix(0.04938271604938272,0,0,0.04938271604938272,64.98765432098766,0)" xlink:href="#bH"/><use transform="matrix(0.04938271604938272,0,0,0.04938271604938272,75.80246913580247,0)" xlink:href="#bH"/><use transform="matrix(0.04938271604938272,0,0,0.04938271604938272,86.61728395061728,0)" xlink:href="#bI"/><use transform="matrix(0.04938271604938272,0,0,0.04938271604938272,98.46913580246913,0)" xlink:href="#bJ"/><use transform="matrix(0.04938271604938272,0,0,0.04938271604938272,110.32098765432097,0)" xlink:href="#bK"/></g><path fill="#fff" d="M182-130c37 4 62 22 62 59C244 23 116-4 24 0v-248c84 5 203-23 205 63 0 31-19 50-47 55zM76-148c40-3 101 13 101-30 0-44-60-28-101-31v61zm0 110c48-3 116 14 116-37 0-48-69-32-116-35v72" id="bV"/><path fill="#fff" d="M135-194c87-1 58 113 63 194h-50c-7-57 23-157-34-157-59 0-34 97-39 157H25l-1-190h47c2 12-1 28 3 38 12-26 28-41 61-42" id="bW"/><g id="ac"><use transform="matrix(0.07407407407407404,0,0,0.07407407407407404,0,0)" xlink:href="#bV"/><use transform="matrix(0.07407407407407404,0,0,0.07407407407407404,19.185185185185176,0)" xlink:href="#av"/><use transform="matrix(0.07407407407407404,0,0,0.07407407407407404,33.999999999999986,0)" xlink:href="#bW"/><use transform="matrix(0.07407407407407404,0,0,0.07407407407407404,50.2222222222222,0)" xlink:href="#ba"/><use transform="matrix(0.07407407407407404,0,0,0.07407407407407404,65.03703703703701,0)" xlink:href="#ay"/></g><g id="ad"><use transform="matrix(0.07407407407407404,0,0,0.07407407407407404,0,0)" xlink:href="#az"/><use transform="matrix(0.07407407407407404,0,0,0.07407407407407404,16.222222222222214,0)" xlink:href="#be"/></g><g id="ae"><use transform="matrix(0.07407407407407404,0,0,0.07407407407407404,0,0)" xlink:href="#az"/><use transform="matrix(0.07407407407407404,0,0,0.07407407407407404,16.222222222222214,0)" xlink:href="#av"/><use transform="matrix(0.07407407407407404,0,0,0.07407407407407404,31.037037037037024,0)" xlink:href="#az"/><use transform="matrix(0.07407407407407404,0,0,0.07407407407407404,47.25925925925924,0)" xlink:href="#ay"/><use transform="matrix(0.07407407407407404,0,0,0.07407407407407404,63.48148148148145,0)" xlink:href="#at"/></g><path fill="#fff" d="M160-131c35 5 61 23 61 61C221 17 115-2 30 0v-248c76 3 177-17 177 60 0 33-19 50-47 57zm-97-11c50-1 110 9 110-42 0-47-63-36-110-37v79zm0 115c55-2 124 14 124-45 0-56-70-42-124-44v89" id="bX"/><g id="af"><use transform="matrix(0.055555555555555504,0,0,0.055555555555555504,0,0)" xlink:href="#bX"/><use transform="matrix(0.055555555555555504,0,0,0.055555555555555504,13.333333333333321,0)" xlink:href="#aJ"/><use transform="matrix(0.055555555555555504,0,0,0.055555555555555504,24.44444444444442,0)" xlink:href="#aT"/><use transform="matrix(0.055555555555555504,0,0,0.055555555555555504,35.55555555555552,0)" xlink:href="#aR"/><use transform="matrix(0.055555555555555504,0,0,0.055555555555555504,45.555555555555515,0)" xlink:href="#aI"/></g><g id="ag"><use transform="matrix(0.055555555555555504,0,0,0.055555555555555504,0,0)" xlink:href="#bj"/><use transform="matrix(0.055555555555555504,0,0,0.055555555555555504,11.1111111111111,0)" xlink:href="#aG"/></g><g id="ah"><use transform="matrix(0.055555555555555504,0,0,0.055555555555555504,0,0)" xlink:href="#bj"/><use transform="matrix(0.055555555555555504,0,0,0.055555555555555504,11.1111111111111,0)" xlink:href="#aJ"/><use transform="matrix(0.055555555555555504,0,0,0.055555555555555504,22.2222222222222,0)" xlink:href="#bj"/><use transform="matrix(0.055555555555555504,0,0,0.055555555555555504,33.3333333333333,0)" xlink:href="#aI"/><use transform="matrix(0.055555555555555504,0,0,0.055555555555555504,44.4444444444444,0)" xlink:href="#aH"/></g><g id="ai"><use transform="matrix(0.055555555555555504,0,0,0.055555555555555504,0,0)" xlink:href="#aO"/><use transform="matrix(0.055555555555555504,0,0,0.055555555555555504,6.611111111111105,0)" xlink:href="#aG"/><use transform="matrix(0.055555555555555504,0,0,0.055555555555555504,17.722222222222207,0)" xlink:href="#aS"/><use transform="matrix(0.055555555555555504,0,0,0.055555555555555504,22.111111111111093,0)" xlink:href="#aJ"/><use transform="matrix(0.055555555555555504,0,0,0.055555555555555504,33.22222222222219,0)" xlink:href="#aR"/><use transform="matrix(0.055555555555555504,0,0,0.055555555555555504,43.222222222222186,0)" xlink:href="#aP"/><use transform="matrix(0.055555555555555504,0,0,0.055555555555555504,47.61111111111107,0)" xlink:href="#aI"/><use transform="matrix(0.055555555555555504,0,0,0.055555555555555504,58.722222222222165,0)" xlink:href="#aT"/><use transform="matrix(0.055555555555555504,0,0,0.055555555555555504,69.83333333333327,0)" xlink:href="#aJ"/><use transform="matrix(0.055555555555555504,0,0,0.055555555555555504,80.94444444444437,0)" xlink:href="#aS"/><use transform="matrix(0.055555555555555504,0,0,0.055555555555555504,85.33333333333326,0)" xlink:href="#aK"/></g><path fill="#fff" d="M143 4C61 4 22-44 18-125c-5-107 100-154 193-111 17 8 29 25 37 43l-32 9c-13-25-37-40-76-40-61 0-88 39-88 99 0 61 29 100 91 101 35 0 62-11 79-27v-45h-74v-28h105v86C228-13 192 4 143 4" id="bY"/><g id="ak"><use transform="matrix(0.06790123456790118,0,0,0.06790123456790118,0,0)" xlink:href="#bY"/><use transform="matrix(0.06790123456790118,0,0,0.06790123456790118,19.01234567901233,0)" xlink:href="#aN"/><use transform="matrix(0.06790123456790118,0,0,0.06790123456790118,32.59259259259257,0)" xlink:href="#aJ"/><use transform="matrix(0.06790123456790118,0,0,0.06790123456790118,46.1728395061728,0)" xlink:href="#aO"/><use transform="matrix(0.06790123456790118,0,0,0.06790123456790118,54.25308641975304,0)" xlink:href="#bj"/><use transform="matrix(0.06790123456790118,0,0,0.06790123456790118,67.83333333333327,0)" xlink:href="#aJ"/></g><g id="al"><use transform="matrix(0.06790123456790118,0,0,0.06790123456790118,0,0)" xlink:href="#aJ"/><use transform="matrix(0.06790123456790118,0,0,0.06790123456790118,13.580246913580234,0)" xlink:href="#aH"/></g><g id="am"><use transform="matrix(0.06790123456790118,0,0,0.06790123456790118,0,0)" xlink:href="#aR"/><use transform="matrix(0.06790123456790118,0,0,0.06790123456790118,12.22222222222221,0)" xlink:href="#aO"/><use transform="matrix(0.06790123456790118,0,0,0.06790123456790118,20.30246913580245,0)" xlink:href="#aG"/><use transform="matrix(0.06790123456790118,0,0,0.06790123456790118,33.88271604938269,0)" xlink:href="#bj"/><use transform="matrix(0.06790123456790118,0,0,0.06790123456790118,47.46296296296292,0)" xlink:href="#aG"/><use transform="matrix(0.06790123456790118,0,0,0.06790123456790118,61.04320987654315,0)" xlink:href="#aT"/><use transform="matrix(0.06790123456790118,0,0,0.06790123456790118,74.6234567901234,0)" xlink:href="#aR"/><use transform="matrix(0.06790123456790118,0,0,0.06790123456790118,86.8456790123456,0)" xlink:href="#aP"/><use transform="matrix(0.06790123456790118,0,0,0.06790123456790118,92.20987654320977,0)" xlink:href="#aJ"/><use transform="matrix(0.06790123456790118,0,0,0.06790123456790118,105.79012345679003,0)" xlink:href="#aP"/><use transform="matrix(0.06790123456790118,0,0,0.06790123456790118,111.15432098765423,0)" xlink:href="#aH"/></g><g id="an"><use transform="matrix(0.06790123456790118,0,0,0.06790123456790118,0,0)" xlink:href="#bj"/><use transform="matrix(0.06790123456790118,0,0,0.06790123456790118,13.580246913580234,0)" xlink:href="#aI"/><use transform="matrix(0.06790123456790118,0,0,0.06790123456790118,27.16049382716047,0)" xlink:href="#aH"/></g><g id="ao"><use transform="matrix(0.06790123456790118,0,0,0.06790123456790118,0,0)" xlink:href="#aN"/><use transform="matrix(0.06790123456790118,0,0,0.06790123456790118,13.580246913580234,0)" xlink:href="#aH"/><use transform="matrix(0.06790123456790118,0,0,0.06790123456790118,25.802469135802447,0)" xlink:href="#aN"/><use transform="matrix(0.06790123456790118,0,0,0.06790123456790118,39.38271604938268,0)" xlink:href="#aJ"/><use transform="matrix(0.06790123456790118,0,0,0.06790123456790118,52.96296296296291,0)" xlink:href="#aO"/><use transform="matrix(0.06790123456790118,0,0,0.06790123456790118,61.04320987654315,0)" xlink:href="#aP"/><use transform="matrix(0.06790123456790118,0,0,0.06790123456790118,66.40740740740735,0)" xlink:href="#aI"/><use transform="matrix(0.06790123456790118,0,0,0.06790123456790118,79.98765432098759,0)" xlink:href="#aH"/><use transform="matrix(0.06790123456790118,0,0,0.06790123456790118,92.2098765432098,0)" xlink:href="#aY"/></g><path fill="#333" d="M24 0v-248h52v208h133V0H24" id="bZ"/><path fill="#333" d="M185-48c-13 30-37 53-82 52C43 2 14-33 14-96s30-98 90-98c62 0 83 45 84 108H66c0 31 8 55 39 56 18 0 30-7 34-22zm-45-69c5-46-57-63-70-21-2 6-4 13-4 21h74zm29-96v5h-28c-13-11-23-24-37-34l-37 34H39c9-26 32-39 45-61h41" id="ca"/><g id="ap"><use transform="matrix(0.04938271604938272,0,0,0.04938271604938272,0,0)" xlink:href="#bZ"/><use transform="matrix(0.04938271604938272,0,0,0.04938271604938272,10.814814814814815,0)" xlink:href="#ca"/></g><path fill="#333" d="M185-48c-13 30-37 53-82 52C43 2 14-33 14-96s30-98 90-98c62 0 83 45 84 108H66c0 31 8 55 39 56 18 0 30-7 34-22zm-45-69c5-46-57-63-70-21-2 6-4 13-4 21h74" id="cb"/><use transform="matrix(0.04938271604938272,0,0,0.04938271604938272,0,0)" xlink:href="#cb" id="aq"/><path fill="#333" d="M190-63c-7 42-38 67-86 67-59 0-84-38-90-98-12-110 154-137 174-36l-49 2c-2-19-15-32-35-32-30 0-35 28-38 64-6 74 65 87 74 30" id="cc"/><path fill="#333" d="M135-150c-39-12-60 13-60 57V0H25l-1-190h47c2 13-1 29 3 40 6-28 27-53 61-41v41" id="cd"/><path fill="#333" d="M128 0H69L1-190h53L99-40l48-150h52" id="ce"/><g id="ar"><use transform="matrix(0.04938271604938272,0,0,0.04938271604938272,0,0)" xlink:href="#cb"/><use transform="matrix(0.04938271604938272,0,0,0.04938271604938272,9.876543209876544,0)" xlink:href="#bD"/><use transform="matrix(0.04938271604938272,0,0,0.04938271604938272,19.75308641975309,0)" xlink:href="#cc"/><use transform="matrix(0.04938271604938272,0,0,0.04938271604938272,29.629629629629633,0)" xlink:href="#cd"/><use transform="matrix(0.04938271604938272,0,0,0.04938271604938272,36.543209876543216,0)" xlink:href="#cb"/><use transform="matrix(0.04938271604938272,0,0,0.04938271604938272,46.41975308641976,0)" xlink:href="#ce"/><use transform="matrix(0.04938271604938272,0,0,0.04938271604938272,56.2962962962963,0)" xlink:href="#cb"/></g></defs></g></svg>